# xmcd
#
# Track frame offsets: 
#        150
#        28747
#        65557
#        99480
#        130620
#        148427
#        180755
#
# Disc length: 2798 seconds
#
# Revision: 5
# Processed by: cddbd v1.5.2PL0 Copyright (c) Steve Scherf et al.
# Submitted via: ExactAudioCopyFreeDBPlugin 1.0
#
DISCID=5d0aec07
DTITLE=Barry White - The Man [Mercury 422 812 273-2]
DYEAR=1978
DGENRE=Soul
TTITLE0=Look At Her
TTITLE1=Your Sweetness Is My Weakness
TTITLE2=Sha La La Means I Love You
TTITLE3=September When I First Met You
TTITLE4=It's Only Love Doing Its Thing
TTITLE5=Just The Way You Are
TTITLE6=Early Years
EXTD=
EXTT0=
EXTT1=
EXTT2=
EXTT3=
EXTT4=
EXTT5=
EXTT6=
PLAYORDER=
